<svg width="20" height="20" viewBox="0 0 20 20" fill="none" xmlns="http://www.w3.org/2000/svg">
<path d="M19.7166 1.65204C20.0945 1.27411 20.0945 0.661371 19.7166 0.283445C19.3386 -0.0944815 18.7259 -0.0944815 18.348 0.283445L10 8.63141L1.65204 0.283448C1.27411 -0.0944777 0.661371 -0.0944777 0.283445 0.283448C-0.0944815 0.661375 -0.0944815 1.27411 0.283445 1.65204L8.63141 10L0.283479 18.3479C-0.0944468 18.7259 -0.0944468 19.3386 0.283479 19.7165C0.661405 20.0944 1.27414 20.0944 1.65207 19.7165L10 11.3686L18.3479 19.7165C18.7259 20.0945 19.3386 20.0945 19.7165 19.7165C20.0944 19.3386 20.0944 18.7259 19.7165 18.3479L11.3686 10L19.7166 1.65204Z" fill="black"/>
</svg>
